<svg width="21" height="19" viewBox="0 0 21 19" fill="none" xmlns="http://www.w3.org/2000/svg">
<path d="M15.7083 0.470703H5.29158C5.02075 0.470703 4.76033 0.481537 4.51033 0.52487C1.82284 0.84987 0.083252 2.91904 0.083252 5.88737V13.4707C0.083252 16.7207 2.16659 18.8874 5.29158 18.8874H15.7083C18.8333 18.8874 20.9166 16.7207 20.9166 13.4707V5.88737C20.9166 2.63737 18.8333 0.470703 15.7083 0.470703ZM6.20825 12.3874C4.77075 12.3874 3.60409 11.174 3.60409 9.67904C3.60409 8.18403 4.77075 6.9707 6.20825 6.9707C7.64575 6.9707 8.81242 8.18403 8.81242 9.67904C8.81242 11.174 7.64575 12.3874 6.20825 12.3874ZM12.9791 12.6582H12.4583C12.0312 12.6582 11.677 12.2899 11.677 11.8457C11.677 11.4015 12.0312 11.0332 12.4583 11.0332H12.9791C13.4062 11.0332 13.7603 11.4015 13.7603 11.8457C13.7603 12.2899 13.4062 12.6582 12.9791 12.6582ZM16.6249 12.6582H16.1041C15.677 12.6582 15.3228 12.2899 15.3228 11.8457C15.3228 11.4015 15.677 11.0332 16.1041 11.0332H16.6249C17.052 11.0332 17.4062 11.4015 17.4062 11.8457C17.4062 12.2899 17.052 12.6582 16.6249 12.6582ZM16.6249 8.32487H12.4583C12.0312 8.32487 11.677 7.95653 11.677 7.51237C11.677 7.0682 12.0312 6.69987 12.4583 6.69987H16.6249C17.052 6.69987 17.4062 7.0682 17.4062 7.51237C17.4062 7.95653 17.052 8.32487 16.6249 8.32487Z" fill="#202020"/>
</svg>
